<?xml version="1.0" encoding="UTF-8"?>
<svg id="Layer_2" xmlns="http://www.w3.org/2000/svg" version="1.1" viewBox="0 0 135 135">
  <!-- Generator: Adobe Illustrator 29.8.3, SVG Export Plug-In . SVG Version: 2.1.1 Build 3)  -->
  <defs>
    <style>
      .st0 {
        fill: #14120e;
      }
    </style>
  </defs>
  <g id="Graphic_Elements">
    <path class="st0" d="M67.5,0C30.2,0,0,30.2,0,67.5s30.2,67.5,67.5,67.5,67.5-30.2,67.5-67.5S104.8,0,67.5,0ZM45.2,104.4h-14.4c-.8,0-1-.2-1-1v-51.3c0-.7.2-1,.9-1h14.6c.9,0,1.1.3,1.1,1.2v25.6h0v25.3c0,.9-.2,1.2-1.2,1.2ZM47.7,34.1c0,5.3-4.3,9.6-9.6,9.6s-9.6-4.3-9.6-9.6,4.3-9.6,9.6-9.6,9.6,4.3,9.6,9.5h0ZM108.5,103.3c0,.9-.2,1.1-1.1,1.1h-14.4c-.9,0-1-.2-1-1v-26.6c0-2.2-.2-4.5-.8-6.6-1.1-4-4-6-8.2-5.8-5.7.3-8.7,3.1-9.4,8.9-.2,1.4-.3,2.8-.2,4.2v25.9c0,.9-.2,1.1-1.1,1.1h-14.5c-.8,0-1-.2-1-1v-51.2c0-.9.3-1,1.1-1h13.8c.8,0,1.1.3,1,1.1v6.1c1.1-1.2,2-2.5,3.2-3.6,3.5-3.3,7.6-5,12.5-4.9,2.7,0,5.3.2,7.8,1,5.9,1.7,9.3,5.7,10.9,11.5,1.2,4.3,1.4,8.7,1.4,13.1v28-.3Z"/>
  </g>
</svg>