<?xml version="1.0" encoding="UTF-8"?><svg id="Layer_1" xmlns="http://www.w3.org/2000/svg" viewBox="0 0 542 88.52"><path d="M19.67,68.85v19.67L0,68.85v-19.67l19.67,19.67ZM59.53,68.85h0l-20.19,19.67h-19.67l19.67-19.67h0l20.19-19.67v19.67ZM59.53,49.18l-20.19,19.67V29.51h20.19v19.67ZM59.53,29.51h-20.19s0-19.67,0-19.67L59.53,0v29.51ZM59.53,0l-20.19,9.84V0h20.19Z" style="fill:#f49819;"/><path d="M128.38,49.18l-19.67,19.67h0l19.67-19.67v19.67h0l-19.67,19.67h-19.67l-20.19-19.67h0s0,0,0,0l20.19-19.67v19.67h19.67V29.51h19.67v19.67ZM89.04,49.18l-20.19,19.67V29.51h20.19v19.67ZM89.04,29.51h-20.19s0-19.67,0-19.67L89.04,0v29.51ZM128.38,29.51h-19.67s0-19.67,0-19.67L128.38,0v29.51ZM68.85,9.84V0h20.19l-20.19,9.84ZM128.38,0l-19.67,9.84V0h19.67Z" style="fill:#f49819;"/><path d="M266.08,68.85h0v19.67l-19.67-19.67h0s0,0,0,0l19.67-19.67v19.67ZM305.94,68.85h0l-20.19,19.67h-19.67,0v-19.67h19.67l20.19-19.67v19.67ZM266.08,29.51h0l-9.84,9.83,9.84-9.83v19.67h0l-19.67,19.67V29.51l19.67-9.84v9.84ZM285.75,19.67h-19.67l-19.67,9.84v-9.84L266.08,0h19.67l20.19,19.67v29.51l-20.19,19.67V19.67Z" style="fill:#f49819;"/><path d="M157.89,88.52h-19.67,0v-19.67h0l19.67-19.67v39.34ZM207.07,49.18l-19.67,19.67h0l19.67-19.67v39.34h-19.67l-19.67-19.67v-19.67l19.67,19.67V29.51h19.67v19.67ZM157.89,49.18l-19.67,19.67v-19.67h0,0v-19.67h19.67v19.67ZM144.77,6.56L157.89,0l19.67,19.67v19.67s-19.67-19.67-19.67-19.67v9.83h-19.67,0V9.84h0,0V0h19.67l-13.12,6.56ZM207.07,29.51h-19.67s0-19.67,0-19.67L207.07,0v29.51ZM207.07,0l-19.67,9.84V0h19.67Z" style="fill:#f49819;"/><path d="M236.57,88.52h-19.67v-19.67h0l19.67-19.67v39.34ZM236.57,49.18l-19.67,19.67V29.51h19.67v19.67ZM236.57,29.51h-19.67s0-19.67,0-19.67L236.57,0v29.51ZM236.57,0l-19.67,9.84V0h19.67Z" style="fill:#f49819;"/><path d="M335.45,38.83h19.67l-19.67,19.67v30.03h-20.19v-19.67h0l20.19-19.67h0s-20.19,19.67-20.19,19.67V29.51h20.19v9.32ZM374.79,19.67v19.15h0l-19.67,19.67h0s0,0,0,0l19.67,19.67v10.35h-19.67,0v-10.35h0l-19.67-19.67h0,0s19.67-19.67,19.67-19.67h0,0v-19.15h-19.67v9.83h-20.19s0-19.67,0-19.67L335.45,0h19.67l19.67,19.67ZM335.45,0l-20.19,9.84V0h20.19Z" style="fill:#f49819;"/><path d="M485.06,0h-23.3l-46.59,46.47v18.81h46.59v23.24h23.3v-42.05h-46.59L485.06,0Z" style="fill:#f49819;"/><path d="M495.41,23.3l23.3-23.3h-23.3v23.3Z" style="fill:#f49819;"/><path d="M542,23.3V0h-23.32v23.3l-23.27,23.3v23.3h23.27v-23.3l23.32-23.3Z" style="fill:#f49819;"/><path d="M542,46.59l-23.29,23.3h23.29v-23.3Z" style="fill:#f49819;"/></svg>