<?xml version="1.0" encoding="UTF-8"?>
<svg id="noir" xmlns="http://www.w3.org/2000/svg" version="1.1" viewBox="0 0 976.4 413.4">
  <!-- Generator: Adobe Illustrator 29.1.0, SVG Export Plug-In . SVG Version: 2.1.0 Build 142)  -->
  <defs>
    <style>
      .st0 {
        fill: #14120e;
      }
    </style>
  </defs>
  <g id="noir-2">
    <polygon class="st0" points="559.9 0 474.8 0 304.6 170.2 304.6 239.1 474.8 239.1 474.8 324.2 559.9 324.2 559.9 170.2 389.7 170.2 559.9 0"/>
    <polygon class="st0" points="596.4 85.1 681.4 0 596.4 0 596.4 85.1"/>
    <polygon class="st0" points="766.6 85.1 766.6 0 681.4 0 681.4 85.1 596.4 170.2 596.4 255.3 681.4 255.3 681.4 170.2 766.6 85.1"/>
    <polygon class="st0" points="766.6 170.2 681.4 255.3 766.6 255.3 766.6 170.2"/>
    <rect class="st0" x="596.4" y="324.2" width="6.7" height="84.6"/>
    <path class="st0" d="M649.4,340.8l-4.4,36.1h14l-1.1,8.7h-24.3l5.5-44.8h10.4Z"/>
    <path class="st0" d="M692.7,377.2h-16.9l-4.2,8.5h-11.2l23.7-44.8h9.5l12,44.8h-10.6l-2.3-8.5ZM690.8,369.2l-3.6-15.8-7.5,15.8h11.2Z"/>
    <path class="st0" d="M724.8,340.8l-3,24.5c-.2,1.4-.3,2-.3,3.9s.3,4.1,2,5.8c1.2,1.1,3.2,2,5.9,2s5.4-1.1,6.6-2.2c2.2-2.2,2.7-6,3-8.5l3.1-25.4h10.3l-3.2,26.1c-.7,5.4-1.3,10.8-5.3,14.9-4.5,4.6-11,4.8-14.7,4.8s-10.1-.5-14.2-4.6c-2.8-2.8-4-6.2-4-10.3s.3-5.2.5-7.1l2.9-23.8h10.4Z"/>
    <path class="st0" d="M784.1,351.8c-2.8-2.6-5.5-3.2-7.5-3.2s-3.1.2-4.2,1.1c-.9.7-1.5,2-1.5,3.2s.6,2.3,1.5,3c.9.8,2.2,1.3,4.4,2.3l2.6,1.2c2.2,1,4.2,2.2,5.9,4.3,1.6,2,2.3,4.1,2.3,7,0,4.7-1.9,8.9-4.5,11.5-3.6,3.6-8.3,4.4-12.8,4.4s-5.9-.4-8.9-2c-2.2-1.2-4.4-3-6-4.8l5.8-7.4c.9,1.3,2.4,2.7,3.8,3.6,1.4.9,3.3,1.5,5.2,1.5s3.7-.5,5-1.4c1.2-.9,1.9-2.5,1.9-4.2s-.7-2.5-1.3-3.1-1.2-1.1-3.6-2l-2.6-1.1c-.7-.3-4.2-1.8-6.3-4s-3-4.8-3-7.6c0-4.6,1.9-8,4-10.2,3.6-3.6,8.3-4.2,12.1-4.2s8.3.7,13,4.4l-5.2,7.5h0Z"/>
    <path class="st0" d="M821.4,377.2h-16.9l-4.2,8.5h-11.2l23.7-44.8h9.5l12,44.8h-10.6l-2.3-8.5ZM819.6,369.2l-3.6-15.8-7.5,15.8h11.2Z"/>
    <path class="st0" d="M839.2,385.6l5.6-44.8h9l20.6,29.2,3.6-29.2h10.3l-5.5,44.8h-9l-20.8-29.3-3.6,29.3h-10.3Z"/>
    <path class="st0" d="M892.6,385.6l5.6-44.8h9l20.6,29.2,3.6-29.2h10.3l-5.5,44.8h-9l-20.8-29.3-3.6,29.3h-10.3,0Z"/>
    <path class="st0" d="M975.3,349.6h-14.7l-1.1,8.7h14.1l-1.1,8.7h-14.1l-1.2,10h14.9l-1.1,8.7h-25l5.5-44.8h24.7l-1.1,8.7h0Z"/>
    <polygon class="st0" points="268.1 0 268.1 324 178.7 413.4 89.4 413.4 178.7 324 178.7 0 268.1 0"/>
    <polygon class="st0" points="89.4 324 89.4 413.4 0 324 0 234.6 89.4 324"/>
  </g>
</svg>